<svg width="24" height="24" viewBox="0 0 24 24" fill="none" xmlns="http://www.w3.org/2000/svg">
<path fill-rule="evenodd" clip-rule="evenodd" d="M12 24C18.6274 24 24 18.6273 24 12C24 5.3727 18.6274 0 12 0C5.37257 0 0 5.3727 0 12C0 18.6273 5.37257 24 12 24ZM17.3163 6.68382C17.7574 7.12466 17.7574 7.83984 17.3163 8.28102L13.5972 12L17.3163 15.719C17.7573 16.1602 17.7573 16.8753 17.3163 17.3162C16.8752 17.7574 16.1601 17.7574 15.719 17.3162L12 13.5972L8.28098 17.3162C7.83993 17.7574 7.12483 17.7574 6.68374 17.3162C6.24269 16.8753 6.24269 16.1602 6.68374 15.719L10.4028 12L6.68374 8.28102C6.24269 7.83984 6.24269 7.12466 6.68374 6.68382C7.12478 6.24265 7.83989 6.24265 8.28098 6.68382L12 10.4028L15.719 6.68382C16.1601 6.24265 16.8752 6.24265 17.3163 6.68382Z" fill="currentColor"/>
</svg>
