<svg width="24" height="24" viewBox="0 0 24 24" fill="none" xmlns="http://www.w3.org/2000/svg">
<g clip-path="url(#clip0_1101_459)">
<path d="M14.0001 17.5L14.3396 19.196C14.3849 19.4227 14.5074 19.6267 14.6862 19.7733C14.8649 19.9199 15.0889 20 15.3201 20H15.7706C16.1174 20 16.4535 20.1201 16.7217 20.34C16.9899 20.5599 17.1736 20.8659 17.2416 21.206L17.2616 21.304C17.2906 21.4491 17.2871 21.5989 17.2512 21.7425C17.2153 21.8861 17.1479 22.02 17.054 22.1344C16.9601 22.2488 16.842 22.341 16.7082 22.4042C16.5743 22.4674 16.4281 22.5001 16.2801 22.5H7.72012C7.57215 22.5001 7.426 22.4673 7.29223 22.404C7.15846 22.3408 7.04039 22.2486 6.94655 22.1342C6.8527 22.0198 6.78542 21.886 6.74955 21.7424C6.71368 21.5988 6.71012 21.4491 6.73912 21.304L6.75912 21.206C6.82706 20.8661 7.01064 20.5602 7.27863 20.3403C7.54662 20.1205 7.88248 20.0002 8.22912 20H8.68012C8.9113 20 9.13533 19.9199 9.31409 19.7733C9.49286 19.6267 9.61531 19.4227 9.66062 19.196L10.0001 17.5" stroke="currentColor" stroke-width="2" stroke-linecap="round" stroke-linejoin="round"/>
<path d="M1.722 15.022C1.8395 16.286 2.842 17.2145 4.109 17.2935C5.7215 17.3935 8.303 17.5 12 17.5C15.697 17.5 18.2785 17.394 19.891 17.2935C21.158 17.2145 22.1605 16.286 22.278 15.022C22.393 13.784 22.5 11.9685 22.5 9.5C22.5 7.0315 22.393 5.216 22.278 3.978C22.1605 2.714 21.158 1.7855 19.891 1.7065C18.2785 1.6065 15.697 1.5 12 1.5C8.303 1.5 5.7215 1.6065 4.109 1.7065C2.842 1.7855 1.8395 2.714 1.722 3.978C1.607 5.216 1.5 7.0315 1.5 9.5C1.5 11.9685 1.607 13.784 1.722 15.022Z" stroke="currentColor" stroke-width="2" stroke-linecap="round" stroke-linejoin="round"/>
<path d="M10.9766 14.4475C10.4421 14.3875 10.0941 13.943 10.0691 13.4065C10.0486 12.973 10.0276 12.3515 10.0141 11.486C9.37386 11.4776 8.73379 11.4593 8.09411 11.431C7.55711 11.406 7.11311 11.058 7.05261 10.524C7.01596 10.1839 6.99843 9.84205 7.00011 9.5C7.00011 9.084 7.02211 8.745 7.05261 8.4765C7.11261 7.942 7.55711 7.594 8.09361 7.569C8.52711 7.5485 9.14861 7.5275 10.0141 7.514C10.0225 6.87375 10.0408 6.23368 10.0691 5.594C10.0941 5.057 10.4421 4.613 10.9761 4.5525C11.2461 4.5225 11.5846 4.5 12.0001 4.5C12.4161 4.5 12.7551 4.522 13.0236 4.5525C13.5581 4.6125 13.9061 5.057 13.9311 5.5935C13.9516 6.027 13.9726 6.6485 13.9861 7.514C14.6264 7.52237 15.2664 7.5407 15.9061 7.569C16.4431 7.594 16.8871 7.942 16.9476 8.4765C16.9776 8.7455 17.0001 9.084 17.0001 9.5C17.0001 9.916 16.9781 10.255 16.9476 10.5235C16.8876 11.058 16.4431 11.406 15.9061 11.431C15.2664 11.4593 14.6264 11.4776 13.9861 11.486C13.9777 12.1262 13.9594 12.7663 13.9311 13.406C13.9061 13.943 13.5581 14.387 13.0241 14.4475C12.7546 14.4775 12.4161 14.5 12.0001 14.5C11.5841 14.5 11.2451 14.478 10.9766 14.4475Z" stroke="currentColor" stroke-width="2" stroke-linecap="round" stroke-linejoin="round"/>
</g>
<defs>
<clipPath id="clip0_1101_459">
<rect width="24" height="24" fill="currentColor"/>
</clipPath>
</defs>
</svg>
