<svg width="24" height="24" viewBox="0 0 20 20" fill="none" xmlns="http://www.w3.org/2000/svg">
<circle cx="10" cy="10" r="10" fill="#5D76FF"/>
<path d="M8.91061 14C9.26443 14 9.53911 13.8808 9.73464 13.6424L14.8045 7.15934C14.8743 7.0709 14.9232 6.9863 14.9511 6.90555C14.9837 6.8248 15 6.74597 15 6.66907C15 6.47296 14.9209 6.31339 14.7626 6.19034C14.6089 6.06345 14.4111 6 14.169 6C14.0014 6 13.8617 6.02884 13.75 6.08652C13.6383 6.14035 13.5289 6.23264 13.4218 6.36337L8.88268 12.3273L6.53631 9.83562C6.35009 9.63951 6.11965 9.54146 5.84497 9.54146C5.59823 9.54146 5.39572 9.60683 5.23743 9.73756C5.07914 9.86446 5 10.026 5 10.2221C5 10.3105 5.01862 10.397 5.05587 10.4816C5.09311 10.5624 5.15596 10.647 5.24441 10.7354L8.08659 13.6597C8.31006 13.8866 8.58473 14 8.91061 14Z" fill="white"/>
</svg>
