<svg width="24" height="24" viewBox="0 0 24 24" fill="none" xmlns="http://www.w3.org/2000/svg">
<rect width="24" height="24" rx="12" fill="#5D76FF" fill-opacity="0.15"/>
<path d="M11.875 12.625C12.2202 12.625 12.5 12.3452 12.5 12C12.5 11.6548 12.2202 11.375 11.875 11.375C11.5298 11.375 11.25 11.6548 11.25 12C11.25 12.3452 11.5298 12.625 11.875 12.625Z" fill="#5D76FF" stroke="#5D76FF" stroke-width="2" stroke-linecap="round" stroke-linejoin="round"/>
<path d="M17.125 12.625C17.4702 12.625 17.75 12.3452 17.75 12C17.75 11.6548 17.4702 11.375 17.125 11.375C16.7798 11.375 16.5 11.6548 16.5 12C16.5 12.3452 16.7798 12.625 17.125 12.625Z" fill="#5D76FF" stroke="#5D76FF" stroke-width="2" stroke-linecap="round" stroke-linejoin="round"/>
<path d="M6.625 12.625C6.97018 12.625 7.25 12.3452 7.25 12C7.25 11.6548 6.97018 11.375 6.625 11.375C6.27982 11.375 6 11.6548 6 12C6 12.3452 6.27982 12.625 6.625 12.625Z" fill="#5D76FF" stroke="#5D76FF" stroke-width="2" stroke-linecap="round" stroke-linejoin="round"/>
</svg>
