<svg width="24" height="24" viewBox="0 0 24 24" fill="none" xmlns="http://www.w3.org/2000/svg">
<path d="M14.5565 1.5245C15.4315 1.5425 16.0915 2.3145 15.989 3.1835L15.872 4.1755C15.829 4.54046 15.6535 4.87694 15.3789 5.12109C15.1042 5.36524 14.7495 5.50007 14.382 5.5H9.61701C9.24961 5.49995 8.895 5.36507 8.62045 5.12093C8.3459 4.87679 8.17049 4.54038 8.12751 4.1755L8.01051 3.1835C7.90801 2.3145 8.56801 1.5425 9.44301 1.5245C10.203 1.509 11.053 1.5 12 1.5C12.9475 1.5 13.7965 1.509 14.5565 1.5245Z" stroke="currentColor" stroke-width="2" stroke-linecap="round" stroke-linejoin="round"/>
<path d="M8.001 3.0625C6.646 3.1085 5.613 3.174 4.846 3.2385C3.6965 3.336 2.838 4.1865 2.74 5.336C2.62 6.74 2.5 9.0685 2.5 12.751C2.5 16.433 2.62 18.761 2.74 20.166C2.838 21.315 3.6965 22.166 4.8465 22.263C6.2395 22.381 8.513 22.501 12 22.501C15.487 22.501 17.7605 22.381 19.1535 22.263C20.3035 22.1655 21.162 21.315 21.26 20.1655C21.38 18.7615 21.5 16.433 21.5 12.7505C21.5 9.0685 21.38 6.7405 21.26 5.3355C21.162 4.1865 20.3035 3.336 19.1535 3.2385C18.387 3.1735 17.3535 3.1085 15.9985 3.0625" stroke="currentColor" stroke-width="2" stroke-linecap="round" stroke-linejoin="round"/>
<path d="M10.9766 18.9475C10.4421 18.8875 10.0941 18.443 10.0691 17.906C10.0408 17.2663 10.0225 16.6262 10.0141 15.986C9.37386 15.9776 8.73379 15.9593 8.09411 15.931C7.55711 15.906 7.11311 15.558 7.05261 15.024C7.01596 14.6839 6.99843 14.342 7.00011 14C7.00011 13.584 7.02211 13.245 7.05261 12.9765C7.11261 12.442 7.55711 12.094 8.09361 12.069C8.52711 12.0485 9.14861 12.0275 10.0141 12.014C10.0225 11.3738 10.0408 10.7337 10.0691 10.094C10.0941 9.557 10.4421 9.113 10.9761 9.0525C11.2456 9.0225 11.5841 9 12.0001 9C12.4161 9 12.7551 9.022 13.0236 9.0525C13.5581 9.1125 13.9061 9.557 13.9311 10.0935C13.9516 10.527 13.9726 11.1485 13.9861 12.014C14.6264 12.0224 15.2664 12.0407 15.9061 12.069C16.4431 12.094 16.8871 12.442 16.9476 12.976C16.9776 13.2455 17.0001 13.584 17.0001 14C17.0001 14.416 16.9781 14.755 16.9476 15.0235C16.8876 15.558 16.4431 15.906 15.9061 15.931C15.2664 15.9593 14.6264 15.9776 13.9861 15.986C13.9777 16.6262 13.9594 17.2663 13.9311 17.906C13.9061 18.443 13.5581 18.887 13.0241 18.9475C12.7546 18.9775 12.4161 19 12.0001 19C11.5841 19 11.2451 18.978 10.9766 18.9475Z" stroke="currentColor" stroke-width="2" stroke-linecap="round" stroke-linejoin="round"/>
</svg>
