<svg width="20" height="20" viewBox="0 0 20 20" fill="none" xmlns="http://www.w3.org/2000/svg">
<g clip-path="url(#clip0_1425_5370)">
<path d="M11.6666 14.5835L11.9495 15.9968C11.9873 16.1857 12.0893 16.3557 12.2383 16.4779C12.3873 16.6 12.574 16.6668 12.7666 16.6668H13.142C13.431 16.6668 13.7111 16.7669 13.9346 16.9502C14.1581 17.1334 14.3112 17.3884 14.3679 17.6718L14.3845 17.7535C14.4087 17.8745 14.4057 17.9993 14.3758 18.1189C14.3459 18.2386 14.2898 18.3501 14.2115 18.4455C14.1333 18.5408 14.0348 18.6176 13.9233 18.6703C13.8118 18.723 13.69 18.7503 13.5666 18.7502H6.43327C6.30996 18.7502 6.18817 18.7229 6.0767 18.6702C5.96522 18.6175 5.86683 18.5407 5.78863 18.4453C5.71042 18.35 5.65435 18.2385 5.62446 18.1188C5.59457 17.9992 5.5916 17.8744 5.61577 17.7535L5.63244 17.6718C5.68906 17.3886 5.84203 17.1337 6.06536 16.9504C6.28868 16.7672 6.56857 16.667 6.85744 16.6668H7.23327C7.42592 16.6668 7.61261 16.6 7.76158 16.4779C7.91055 16.3557 8.0126 16.1857 8.05036 15.9968L8.33327 14.5835" stroke="#B3B3B3" stroke-width="1.5" stroke-linecap="round" stroke-linejoin="round"/>
<path d="M1.435 12.5183C1.53292 13.5717 2.36833 14.3454 3.42417 14.4113C4.76792 14.4946 6.91917 14.5833 10 14.5833C13.0808 14.5833 15.2321 14.495 16.5758 14.4113C17.6317 14.3454 18.4671 13.5717 18.565 12.5183C18.6608 11.4867 18.75 9.97375 18.75 7.91667C18.75 5.85958 18.6608 4.34667 18.565 3.315C18.4671 2.26167 17.6317 1.48792 16.5758 1.42208C15.2321 1.33875 13.0808 1.25 10 1.25C6.91917 1.25 4.76792 1.33875 3.42417 1.42208C2.36833 1.48792 1.53292 2.26167 1.435 3.315C1.33917 4.34667 1.25 5.85958 1.25 7.91667C1.25 9.97375 1.33917 11.4867 1.435 12.5183Z" stroke="#B3B3B3" stroke-width="1.5" stroke-linecap="round" stroke-linejoin="round"/>
<path d="M9.14685 12.0396C8.70143 11.9896 8.41143 11.6192 8.3906 11.1721C8.37352 10.8108 8.35602 10.2929 8.34477 9.57167C7.81123 9.56469 7.27783 9.54941 6.74477 9.52583C6.29727 9.505 5.92727 9.215 5.87685 8.77C5.84631 8.4866 5.8317 8.20171 5.8331 7.91667C5.8331 7.57 5.85143 7.2875 5.87685 7.06375C5.92685 6.61833 6.29727 6.32833 6.74435 6.3075C7.1056 6.29042 7.62352 6.27292 8.34477 6.26167C8.35174 5.72813 8.36702 5.19473 8.3906 4.66167C8.41143 4.21417 8.70143 3.84417 9.14643 3.79375C9.37143 3.76875 9.65352 3.75 9.99977 3.75C10.3464 3.75 10.6289 3.76833 10.8527 3.79375C11.2981 3.84375 11.5881 4.21417 11.6089 4.66125C11.626 5.0225 11.6435 5.54042 11.6548 6.26167C12.1883 6.26864 12.7217 6.28392 13.2548 6.3075C13.7023 6.32833 14.0723 6.61833 14.1227 7.06375C14.1477 7.28792 14.1664 7.57 14.1664 7.91667C14.1664 8.26333 14.1481 8.54583 14.1227 8.76958C14.0727 9.215 13.7023 9.505 13.2548 9.52583C12.7217 9.54941 12.1883 9.56469 11.6548 9.57167C11.6478 10.1052 11.6325 10.6386 11.6089 11.1717C11.5881 11.6192 11.2981 11.9892 10.8531 12.0396C10.6285 12.0646 10.3464 12.0833 9.99977 12.0833C9.6531 12.0833 9.3706 12.065 9.14685 12.0396Z" stroke="#B3B3B3" stroke-width="1.5" stroke-linecap="round" stroke-linejoin="round"/>
</g>
<defs>
<clipPath id="clip0_1425_5370">
<rect width="20" height="20" fill="white"/>
</clipPath>
</defs>
</svg>
